<svg viewBox="0 0 55 40" xmlns="http://www.w3.org/2000/svg" xmlns:xlink="http://www.w3.org/1999/xlink" width="55.000000" height="40.000000" fill="none" customFrame="#000000">
	<path id="НОЙСТРОЙ" d="M25.6836 34L19.8242 34L19.8242 21.8125L8.39844 21.8125L8.39844 34L2.53906 34L2.53906 5.5625L8.39844 5.5625L8.39844 17.0859L19.8242 17.0859L19.8242 5.5625L25.6836 5.5625L25.6836 34Z" fill="rgb(88,141,3)" fill-rule="nonzero" />
	<path id="НОЙСТРОЙ" d="M53.125 24.5273Q52.793 29.1172 49.7363 31.7539Q46.6797 34.3906 41.6797 34.3906Q36.2109 34.3906 33.0762 30.709Q29.9414 27.0273 29.9414 20.6016L29.9414 18.8633Q29.9414 14.7617 31.3867 11.6367Q32.832 8.51172 35.5176 6.8418Q38.2031 5.17188 41.7578 5.17188Q46.6797 5.17188 49.6875 7.80859Q52.6953 10.4453 53.1641 15.2109L47.3047 15.2109Q47.0898 12.457 45.7715 11.2168Q44.4531 9.97656 41.7578 9.97656Q38.8281 9.97656 37.373 12.0762Q35.918 14.1758 35.8789 18.5898L35.8789 20.7383Q35.8789 25.3477 37.2754 27.4766Q38.6719 29.6055 41.6797 29.6055Q44.3945 29.6055 45.7324 28.3652Q47.0703 27.125 47.2656 24.5273L53.125 24.5273Z" fill="rgb(88,141,3)" fill-rule="nonzero" />
	<path id="НОЙСТРОЙ" d="M53.125 24.5273Q52.793 29.1172 49.7363 31.7539Q46.6797 34.3906 41.6797 34.3906Q36.2109 34.3906 33.0762 30.709Q29.9414 27.0273 29.9414 20.6016L29.9414 18.8633Q29.9414 14.7617 31.3867 11.6367Q32.832 8.51172 35.5176 6.8418Q38.2031 5.17188 41.7578 5.17188Q46.6797 5.17188 49.6875 7.80859Q52.6953 10.4453 53.1641 15.2109L47.3047 15.2109Q47.0898 12.457 45.7715 11.2168Q44.4531 9.97656 41.7578 9.97656Q38.8281 9.97656 37.373 12.0762Q35.918 14.1758 35.8789 18.5898L35.8789 20.7383Q35.8789 25.3477 37.2754 27.4766Q38.6719 29.6055 41.6797 29.6055Q44.3945 29.6055 45.7324 28.3652Q47.0703 27.125 47.2656 24.5273L53.125 24.5273Z" fill="rgb(0,0,0)" fill-rule="nonzero" />
</svg>
