<svg viewBox="0 0 238 52" xmlns="http://www.w3.org/2000/svg" xmlns:xlink="http://www.w3.org/1999/xlink" width="238.000000" height="52.000000" fill="none" customFrame="#000000">
	<path id="НОЙСТРОЙ" d="M23.5684 22.3477L23.5684 27.7617L7.36914 27.7617L7.36914 22.3477L23.5684 22.3477ZM9.58203 9.75781L9.58203 41.0391L2.57812 41.0391L2.57812 9.75781L9.58203 9.75781ZM28.4023 9.75781L28.4023 41.0391L21.4199 41.0391L21.4199 9.75781L28.4023 9.75781ZM59.6836 24.7109L59.6836 26.1074C59.6836 28.485 59.3542 30.6191 58.6953 32.5098C58.0508 34.4004 57.127 36.0117 55.9238 37.3438C54.735 38.6758 53.3171 39.6999 51.6699 40.416C50.0371 41.1178 48.2253 41.4688 46.2344 41.4688C44.2435 41.4688 42.4245 41.1178 40.7773 40.416C39.1302 39.6999 37.6979 38.6758 36.4805 37.3438C35.2773 36.0117 34.3464 34.4004 33.6875 32.5098C33.0286 30.6191 32.6992 28.485 32.6992 26.1074L32.6992 24.7109C32.6992 22.3333 33.0286 20.1992 33.6875 18.3086C34.3464 16.4036 35.2702 14.7852 36.459 13.4531C37.6621 12.1211 39.0872 11.1042 40.7344 10.4023C42.3815 9.6862 44.2005 9.32812 46.1914 9.32812C48.1823 9.32812 50.0013 9.6862 51.6484 10.4023C53.2956 11.1042 54.7135 12.1211 55.9023 13.4531C57.1055 14.7852 58.0365 16.4036 58.6953 18.3086C59.3542 20.1992 59.6836 22.3333 59.6836 24.7109ZM52.6152 26.1074L52.6152 24.668C52.6152 23.0781 52.472 21.6745 52.1855 20.457C51.8991 19.2253 51.4837 18.194 50.9395 17.3633C50.3952 16.5326 49.722 15.9095 48.9199 15.4941C48.1178 15.0645 47.2083 14.8496 46.1914 14.8496C45.1315 14.8496 44.2077 15.0645 43.4199 15.4941C42.6322 15.9095 41.9661 16.5326 41.4219 17.3633C40.8919 18.194 40.4837 19.2253 40.1973 20.457C39.9251 21.6745 39.7891 23.0781 39.7891 24.668L39.7891 26.1074C39.7891 27.6829 39.9251 29.0866 40.1973 30.3184C40.4837 31.5358 40.8991 32.5671 41.4434 33.4121C41.9876 34.2572 42.6536 34.8945 43.4414 35.3242C44.2435 35.7539 45.1745 35.9688 46.2344 35.9688C47.2513 35.9688 48.1536 35.7539 48.9414 35.3242C49.7435 34.8945 50.4167 34.2572 50.9609 33.4121C51.5052 32.5671 51.9134 31.5358 52.1855 30.3184C52.472 29.0866 52.6152 27.6829 52.6152 26.1074ZM70.6406 30.2109L82.5645 9.75781L89.5469 9.75781L89.5469 41.0391L82.5645 41.0391L82.5645 20.6074L70.6406 41.0391L63.6582 41.0391L63.6582 9.75781L70.6406 9.75781L70.6406 30.2109ZM79.6855 1.44336L84.3691 1.44336C84.3691 2.70377 84.054 3.82096 83.4238 4.79492C82.7936 5.76888 81.8984 6.52799 80.7383 7.07227C79.5925 7.61654 78.2318 7.88867 76.6562 7.88867C74.293 7.88867 72.4167 7.29427 71.0273 6.10547C69.638 4.90234 68.9434 3.3483 68.9434 1.44336L73.6055 1.44336C73.6055 2.17383 73.8346 2.82552 74.293 3.39844C74.7656 3.95703 75.5534 4.23633 76.6562 4.23633C77.7734 4.23633 78.554 3.95703 78.998 3.39844C79.4564 2.82552 79.6855 2.17383 79.6855 1.44336Z" fill="rgb(88,141,3)" fill-rule="nonzero" />
	<path id="НОЙСТРОЙ" d="M112.6 30.5547L119.561 30.5547C119.446 32.7031 118.859 34.6009 117.799 36.248C116.753 37.8809 115.299 39.1628 113.438 40.0938C111.576 41.0104 109.363 41.4688 106.799 41.4688C104.751 41.4688 102.917 41.1178 101.299 40.416C99.6803 39.7142 98.3053 38.7116 97.1738 37.4082C96.0566 36.0905 95.1973 34.5078 94.5957 32.6602C94.0085 30.7982 93.7148 28.6999 93.7148 26.3652L93.7148 24.4531C93.7148 22.1185 94.0228 20.0202 94.6387 18.1582C95.2546 16.2962 96.1354 14.7064 97.2812 13.3887C98.4271 12.071 99.8021 11.0612 101.406 10.3594C103.01 9.65755 104.801 9.30664 106.777 9.30664C109.441 9.30664 111.69 9.78646 113.523 10.7461C115.357 11.7057 116.775 13.0234 117.777 14.6992C118.794 16.375 119.403 18.2871 119.604 20.4355L112.621 20.4355C112.564 19.2181 112.335 18.194 111.934 17.3633C111.533 16.5182 110.917 15.8809 110.086 15.4512C109.255 15.0215 108.152 14.8066 106.777 14.8066C105.775 14.8066 104.894 14.9928 104.135 15.3652C103.39 15.7376 102.767 16.3177 102.266 17.1055C101.779 17.8932 101.413 18.8958 101.17 20.1133C100.926 21.3164 100.805 22.7487 100.805 24.4102L100.805 26.3652C100.805 28.0124 100.912 29.4375 101.127 30.6406C101.342 31.8438 101.686 32.8392 102.158 33.627C102.645 34.4147 103.268 35.002 104.027 35.3887C104.786 35.7754 105.71 35.9688 106.799 35.9688C108.045 35.9688 109.083 35.7754 109.914 35.3887C110.745 34.9876 111.382 34.3861 111.826 33.584C112.27 32.7819 112.528 31.7721 112.6 30.5547ZM137.371 9.75781L137.371 41.0391L130.389 41.0391L130.389 9.75781L137.371 9.75781ZM146.889 9.75781L146.889 15.1934L121.064 15.1934L121.064 9.75781L146.889 9.75781ZM162.68 30.168L154.816 30.168L154.816 24.7324L162.68 24.7324C163.84 24.7324 164.771 24.5391 165.473 24.1523C166.189 23.7656 166.712 23.2357 167.041 22.5625C167.385 21.875 167.557 21.1016 167.557 20.2422C167.557 19.3542 167.385 18.5306 167.041 17.7715C166.712 16.998 166.189 16.375 165.473 15.9023C164.771 15.4297 163.84 15.1934 162.68 15.1934L157.352 15.1934L157.352 41.0391L150.348 41.0391L150.348 9.75781L162.68 9.75781C165.172 9.75781 167.306 10.209 169.082 11.1113C170.872 12.0137 172.24 13.2526 173.186 14.8281C174.145 16.3893 174.625 18.1797 174.625 20.1992C174.625 22.2188 174.145 23.9733 173.186 25.4629C172.24 26.9525 170.872 28.1126 169.082 28.9434C167.306 29.7598 165.172 30.168 162.68 30.168ZM204.961 24.7109L204.961 26.1074C204.961 28.485 204.632 30.6191 203.973 32.5098C203.328 34.4004 202.404 36.0117 201.201 37.3438C200.012 38.6758 198.594 39.6999 196.947 40.416C195.314 41.1178 193.503 41.4688 191.512 41.4688C189.521 41.4688 187.702 41.1178 186.055 40.416C184.408 39.6999 182.975 38.6758 181.758 37.3438C180.555 36.0117 179.624 34.4004 178.965 32.5098C178.306 30.6191 177.977 28.485 177.977 26.1074L177.977 24.7109C177.977 22.3333 178.306 20.1992 178.965 18.3086C179.624 16.4036 180.548 14.7852 181.736 13.4531C182.939 12.1211 184.365 11.1042 186.012 10.4023C187.659 9.6862 189.478 9.32812 191.469 9.32812C193.46 9.32812 195.279 9.6862 196.926 10.4023C198.573 11.1042 199.991 12.1211 201.18 13.4531C202.383 14.7852 203.314 16.4036 203.973 18.3086C204.632 20.1992 204.961 22.3333 204.961 24.7109ZM197.893 26.1074L197.893 24.668C197.893 23.0781 197.749 21.6745 197.463 20.457C197.176 19.2253 196.761 18.194 196.217 17.3633C195.673 16.5326 194.999 15.9095 194.197 15.4941C193.395 15.0645 192.486 14.8496 191.469 14.8496C190.409 14.8496 189.485 15.0645 188.697 15.4941C187.91 15.9095 187.243 16.5326 186.699 17.3633C186.169 18.194 185.761 19.2253 185.475 20.457C185.202 21.6745 185.066 23.0781 185.066 24.668L185.066 26.1074C185.066 27.6829 185.202 29.0866 185.475 30.3184C185.761 31.5358 186.176 32.5671 186.721 33.4121C187.265 34.2572 187.931 34.8945 188.719 35.3242C189.521 35.7539 190.452 35.9688 191.512 35.9688C192.529 35.9688 193.431 35.7539 194.219 35.3242C195.021 34.8945 195.694 34.2572 196.238 33.4121C196.783 32.5671 197.191 31.5358 197.463 30.3184C197.749 29.0866 197.893 27.6829 197.893 26.1074ZM215.918 30.2109L227.842 9.75781L234.824 9.75781L234.824 41.0391L227.842 41.0391L227.842 20.6074L215.918 41.0391L208.936 41.0391L208.936 9.75781L215.918 9.75781L215.918 30.2109ZM224.963 1.44336L229.646 1.44336C229.646 2.70377 229.331 3.82096 228.701 4.79492C228.071 5.76888 227.176 6.52799 226.016 7.07227C224.87 7.61654 223.509 7.88867 221.934 7.88867C219.57 7.88867 217.694 7.29427 216.305 6.10547C214.915 4.90234 214.221 3.3483 214.221 1.44336L218.883 1.44336C218.883 2.17383 219.112 2.82552 219.57 3.39844C220.043 3.95703 220.831 4.23633 221.934 4.23633C223.051 4.23633 223.831 3.95703 224.275 3.39844C224.734 2.82552 224.963 2.17383 224.963 1.44336Z" fill="rgb(88,141,3)" fill-rule="nonzero" />
	<path id="НОЙСТРОЙ" d="M112.6 30.5547L119.561 30.5547C119.446 32.7031 118.859 34.6009 117.799 36.248C116.753 37.8809 115.299 39.1628 113.438 40.0938C111.576 41.0104 109.363 41.4688 106.799 41.4688C104.751 41.4688 102.917 41.1178 101.299 40.416C99.6803 39.7142 98.3053 38.7116 97.1738 37.4082C96.0566 36.0905 95.1973 34.5078 94.5957 32.6602C94.0085 30.7982 93.7148 28.6999 93.7148 26.3652L93.7148 24.4531C93.7148 22.1185 94.0228 20.0202 94.6387 18.1582C95.2546 16.2962 96.1354 14.7064 97.2812 13.3887C98.4271 12.071 99.8021 11.0612 101.406 10.3594C103.01 9.65755 104.801 9.30664 106.777 9.30664C109.441 9.30664 111.69 9.78646 113.523 10.7461C115.357 11.7057 116.775 13.0234 117.777 14.6992C118.794 16.375 119.403 18.2871 119.604 20.4355L112.621 20.4355C112.564 19.2181 112.335 18.194 111.934 17.3633C111.533 16.5182 110.917 15.8809 110.086 15.4512C109.255 15.0215 108.152 14.8066 106.777 14.8066C105.775 14.8066 104.894 14.9928 104.135 15.3652C103.39 15.7376 102.767 16.3177 102.266 17.1055C101.779 17.8932 101.413 18.8958 101.17 20.1133C100.926 21.3164 100.805 22.7487 100.805 24.4102L100.805 26.3652C100.805 28.0124 100.912 29.4375 101.127 30.6406C101.342 31.8438 101.686 32.8392 102.158 33.627C102.645 34.4147 103.268 35.002 104.027 35.3887C104.786 35.7754 105.71 35.9688 106.799 35.9688C108.045 35.9688 109.083 35.7754 109.914 35.3887C110.745 34.9876 111.382 34.3861 111.826 33.584C112.27 32.7819 112.528 31.7721 112.6 30.5547ZM137.371 9.75781L137.371 41.0391L130.389 41.0391L130.389 9.75781L137.371 9.75781ZM146.889 9.75781L146.889 15.1934L121.064 15.1934L121.064 9.75781L146.889 9.75781ZM162.68 30.168L154.816 30.168L154.816 24.7324L162.68 24.7324C163.84 24.7324 164.771 24.5391 165.473 24.1523C166.189 23.7656 166.712 23.2357 167.041 22.5625C167.385 21.875 167.557 21.1016 167.557 20.2422C167.557 19.3542 167.385 18.5306 167.041 17.7715C166.712 16.998 166.189 16.375 165.473 15.9023C164.771 15.4297 163.84 15.1934 162.68 15.1934L157.352 15.1934L157.352 41.0391L150.348 41.0391L150.348 9.75781L162.68 9.75781C165.172 9.75781 167.306 10.209 169.082 11.1113C170.872 12.0137 172.24 13.2526 173.186 14.8281C174.145 16.3893 174.625 18.1797 174.625 20.1992C174.625 22.2188 174.145 23.9733 173.186 25.4629C172.24 26.9525 170.872 28.1126 169.082 28.9434C167.306 29.7598 165.172 30.168 162.68 30.168ZM204.961 24.7109L204.961 26.1074C204.961 28.485 204.632 30.6191 203.973 32.5098C203.328 34.4004 202.404 36.0117 201.201 37.3438C200.012 38.6758 198.594 39.6999 196.947 40.416C195.314 41.1178 193.503 41.4688 191.512 41.4688C189.521 41.4688 187.702 41.1178 186.055 40.416C184.408 39.6999 182.975 38.6758 181.758 37.3438C180.555 36.0117 179.624 34.4004 178.965 32.5098C178.306 30.6191 177.977 28.485 177.977 26.1074L177.977 24.7109C177.977 22.3333 178.306 20.1992 178.965 18.3086C179.624 16.4036 180.548 14.7852 181.736 13.4531C182.939 12.1211 184.365 11.1042 186.012 10.4023C187.659 9.6862 189.478 9.32812 191.469 9.32812C193.46 9.32812 195.279 9.6862 196.926 10.4023C198.573 11.1042 199.991 12.1211 201.18 13.4531C202.383 14.7852 203.314 16.4036 203.973 18.3086C204.632 20.1992 204.961 22.3333 204.961 24.7109ZM197.893 26.1074L197.893 24.668C197.893 23.0781 197.749 21.6745 197.463 20.457C197.176 19.2253 196.761 18.194 196.217 17.3633C195.673 16.5326 194.999 15.9095 194.197 15.4941C193.395 15.0645 192.486 14.8496 191.469 14.8496C190.409 14.8496 189.485 15.0645 188.697 15.4941C187.91 15.9095 187.243 16.5326 186.699 17.3633C186.169 18.194 185.761 19.2253 185.475 20.457C185.202 21.6745 185.066 23.0781 185.066 24.668L185.066 26.1074C185.066 27.6829 185.202 29.0866 185.475 30.3184C185.761 31.5358 186.176 32.5671 186.721 33.4121C187.265 34.2572 187.931 34.8945 188.719 35.3242C189.521 35.7539 190.452 35.9688 191.512 35.9688C192.529 35.9688 193.431 35.7539 194.219 35.3242C195.021 34.8945 195.694 34.2572 196.238 33.4121C196.783 32.5671 197.191 31.5358 197.463 30.3184C197.749 29.0866 197.893 27.6829 197.893 26.1074ZM215.918 30.2109L227.842 9.75781L234.824 9.75781L234.824 41.0391L227.842 41.0391L227.842 20.6074L215.918 41.0391L208.936 41.0391L208.936 9.75781L215.918 9.75781L215.918 30.2109ZM224.963 1.44336L229.646 1.44336C229.646 2.70377 229.331 3.82096 228.701 4.79492C228.071 5.76888 227.176 6.52799 226.016 7.07227C224.87 7.61654 223.509 7.88867 221.934 7.88867C219.57 7.88867 217.694 7.29427 216.305 6.10547C214.915 4.90234 214.221 3.3483 214.221 1.44336L218.883 1.44336C218.883 2.17383 219.112 2.82552 219.57 3.39844C220.043 3.95703 220.831 4.23633 221.934 4.23633C223.051 4.23633 223.831 3.95703 224.275 3.39844C224.734 2.82552 224.963 2.17383 224.963 1.44336Z" fill="rgb(254,254,254)" fill-rule="nonzero" />
</svg>
