<svg viewBox="0 0 216 41.918" xmlns="http://www.w3.org/2000/svg" xmlns:xlink="http://www.w3.org/1999/xlink" width="216.000000" height="41.917969" fill="none" customFrame="#000000">
	<path id="НОЙСТРОЙ" d="M25.6836 35.918L19.8242 35.918L19.8242 23.7305L8.39844 23.7305L8.39844 35.918L2.53906 35.918L2.53906 7.48047L8.39844 7.48047L8.39844 19.0039L19.8242 19.0039L19.8242 7.48047L25.6836 7.48047L25.6836 35.918ZM54.1602 22.3438Q54.1602 26.543 52.6758 29.707Q51.1914 32.8711 48.4277 34.5898Q45.6641 36.3086 42.0898 36.3086Q38.5547 36.3086 35.7812 34.6094Q33.0078 32.9102 31.4844 29.7559Q29.9609 26.6016 29.9414 22.5L29.9414 21.0938Q29.9414 16.8945 31.4551 13.7012Q32.9688 10.5078 35.7324 8.79883Q38.4961 7.08984 42.0508 7.08984Q45.6055 7.08984 48.3691 8.79883Q51.1328 10.5078 52.6465 13.7012Q54.1602 16.8945 54.1602 21.0742L54.1602 22.3438ZM48.2227 21.0547Q48.2227 16.582 46.6211 14.2578Q45.0195 11.9336 42.0508 11.9336Q39.1016 11.9336 37.5 14.2285Q35.8984 16.5234 35.8789 20.957L35.8789 22.3438Q35.8789 26.6992 37.4805 29.1016Q39.082 31.5039 42.0898 31.5039Q45.0391 31.5039 46.6211 29.1895Q48.2031 26.875 48.2227 22.4414L48.2227 21.0547ZM75.4688 7.48047L81.3477 7.48047L81.3477 35.918L75.4688 35.918L75.4688 17.0312L64.082 35.918L58.2227 35.918L58.2227 7.48047L64.082 7.48047L64.082 26.4062L75.4688 7.48047ZM76.6016 0Q76.6016 2.59766 74.7363 4.19922Q72.8711 5.80078 69.8438 5.80078Q66.8164 5.80078 64.9512 4.21875Q63.0859 2.63672 63.0859 0L67.0898 0Q67.0898 1.23047 67.8223 1.9043Q68.5547 2.57812 69.8438 2.57812Q71.1133 2.57812 71.8359 1.9043Q72.5586 1.23047 72.5586 0L76.6016 0Z" fill="rgb(88,141,3)" fill-rule="nonzero" />
	<path id="НОЙСТРОЙ" d="M108.75 26.4453Q108.418 31.0352 105.361 33.6719Q102.305 36.3086 97.3047 36.3086Q91.8359 36.3086 88.7012 32.627Q85.5664 28.9453 85.5664 22.5195L85.5664 20.7812Q85.5664 16.6797 87.0117 13.5547Q88.457 10.4297 91.1426 8.75977Q93.8281 7.08984 97.3828 7.08984Q102.305 7.08984 105.312 9.72656Q108.32 12.3633 108.789 17.1289L102.93 17.1289Q102.715 14.375 101.396 13.1348Q100.078 11.8945 97.3828 11.8945Q94.4531 11.8945 92.998 13.9941Q91.543 16.0938 91.5039 20.5078L91.5039 22.6562Q91.5039 27.2656 92.9004 29.3945Q94.2969 31.5234 97.3047 31.5234Q100.02 31.5234 101.357 30.2832Q102.695 29.043 102.891 26.4453L108.75 26.4453ZM133.438 12.2266L124.727 12.2266L124.727 35.918L118.867 35.918L118.867 12.2266L110.273 12.2266L110.273 7.48047L133.438 7.48047L133.438 12.2266ZM142.637 25.8984L142.637 35.918L136.777 35.918L136.777 7.48047L147.871 7.48047Q151.074 7.48047 153.506 8.65234Q155.938 9.82422 157.246 11.9824Q158.555 14.1406 158.555 16.8945Q158.555 21.0742 155.693 23.4863Q152.832 25.8984 147.773 25.8984L142.637 25.8984ZM142.637 21.1523L147.871 21.1523Q150.195 21.1523 151.416 20.0586Q152.637 18.9648 152.637 16.9336Q152.637 14.8438 151.406 13.5547Q150.176 12.2656 148.008 12.2266L142.637 12.2266L142.637 21.1523ZM185.938 22.3438Q185.938 26.543 184.453 29.707Q182.969 32.8711 180.205 34.5898Q177.441 36.3086 173.867 36.3086Q170.332 36.3086 167.559 34.6094Q164.785 32.9102 163.262 29.7559Q161.738 26.6016 161.719 22.5L161.719 21.0938Q161.719 16.8945 163.232 13.7012Q164.746 10.5078 167.51 8.79883Q170.273 7.08984 173.828 7.08984Q177.383 7.08984 180.146 8.79883Q182.91 10.5078 184.424 13.7012Q185.938 16.8945 185.938 21.0742L185.938 22.3438ZM180 21.0547Q180 16.582 178.398 14.2578Q176.797 11.9336 173.828 11.9336Q170.879 11.9336 169.277 14.2285Q167.676 16.5234 167.656 20.957L167.656 22.3438Q167.656 26.6992 169.258 29.1016Q170.859 31.5039 173.867 31.5039Q176.816 31.5039 178.398 29.1895Q179.98 26.875 180 22.4414L180 21.0547ZM207.246 7.48047L213.125 7.48047L213.125 35.918L207.246 35.918L207.246 17.0312L195.859 35.918L190 35.918L190 7.48047L195.859 7.48047L195.859 26.4062L207.246 7.48047ZM208.379 0Q208.379 2.59766 206.514 4.19922Q204.648 5.80078 201.621 5.80078Q198.594 5.80078 196.729 4.21875Q194.863 2.63672 194.863 0L198.867 0Q198.867 1.23047 199.6 1.9043Q200.332 2.57812 201.621 2.57812Q202.891 2.57812 203.613 1.9043Q204.336 1.23047 204.336 0L208.379 0Z" fill="rgb(88,141,3)" fill-rule="nonzero" />
	<path id="НОЙСТРОЙ" d="M108.75 26.4453Q108.418 31.0352 105.361 33.6719Q102.305 36.3086 97.3047 36.3086Q91.8359 36.3086 88.7012 32.627Q85.5664 28.9453 85.5664 22.5195L85.5664 20.7812Q85.5664 16.6797 87.0117 13.5547Q88.457 10.4297 91.1426 8.75977Q93.8281 7.08984 97.3828 7.08984Q102.305 7.08984 105.312 9.72656Q108.32 12.3633 108.789 17.1289L102.93 17.1289Q102.715 14.375 101.396 13.1348Q100.078 11.8945 97.3828 11.8945Q94.4531 11.8945 92.998 13.9941Q91.543 16.0938 91.5039 20.5078L91.5039 22.6562Q91.5039 27.2656 92.9004 29.3945Q94.2969 31.5234 97.3047 31.5234Q100.02 31.5234 101.357 30.2832Q102.695 29.043 102.891 26.4453L108.75 26.4453ZM133.438 12.2266L124.727 12.2266L124.727 35.918L118.867 35.918L118.867 12.2266L110.273 12.2266L110.273 7.48047L133.438 7.48047L133.438 12.2266ZM142.637 25.8984L142.637 35.918L136.777 35.918L136.777 7.48047L147.871 7.48047Q151.074 7.48047 153.506 8.65234Q155.938 9.82422 157.246 11.9824Q158.555 14.1406 158.555 16.8945Q158.555 21.0742 155.693 23.4863Q152.832 25.8984 147.773 25.8984L142.637 25.8984ZM142.637 21.1523L147.871 21.1523Q150.195 21.1523 151.416 20.0586Q152.637 18.9648 152.637 16.9336Q152.637 14.8438 151.406 13.5547Q150.176 12.2656 148.008 12.2266L142.637 12.2266L142.637 21.1523ZM185.938 22.3438Q185.938 26.543 184.453 29.707Q182.969 32.8711 180.205 34.5898Q177.441 36.3086 173.867 36.3086Q170.332 36.3086 167.559 34.6094Q164.785 32.9102 163.262 29.7559Q161.738 26.6016 161.719 22.5L161.719 21.0938Q161.719 16.8945 163.232 13.7012Q164.746 10.5078 167.51 8.79883Q170.273 7.08984 173.828 7.08984Q177.383 7.08984 180.146 8.79883Q182.91 10.5078 184.424 13.7012Q185.938 16.8945 185.938 21.0742L185.938 22.3438ZM180 21.0547Q180 16.582 178.398 14.2578Q176.797 11.9336 173.828 11.9336Q170.879 11.9336 169.277 14.2285Q167.676 16.5234 167.656 20.957L167.656 22.3438Q167.656 26.6992 169.258 29.1016Q170.859 31.5039 173.867 31.5039Q176.816 31.5039 178.398 29.1895Q179.98 26.875 180 22.4414L180 21.0547ZM207.246 7.48047L213.125 7.48047L213.125 35.918L207.246 35.918L207.246 17.0312L195.859 35.918L190 35.918L190 7.48047L195.859 7.48047L195.859 26.4062L207.246 7.48047ZM208.379 0Q208.379 2.59766 206.514 4.19922Q204.648 5.80078 201.621 5.80078Q198.594 5.80078 196.729 4.21875Q194.863 2.63672 194.863 0L198.867 0Q198.867 1.23047 199.6 1.9043Q200.332 2.57812 201.621 2.57812Q202.891 2.57812 203.613 1.9043Q204.336 1.23047 204.336 0L208.379 0Z" fill="rgb(0,0,0)" fill-rule="nonzero" />
</svg>
