<svg viewBox="0 0 51.7549 51.7549" xmlns="http://www.w3.org/2000/svg" xmlns:xlink="http://www.w3.org/1999/xlink" width="51.754883" height="51.754883" fill="none" customFrame="#000000">
	<defs>
		<clipPath id="clipPath_0">
			<rect width="51.754883" height="51.754883" x="0.000000" y="0.000000" fill="rgb(255,255,255)" />
		</clipPath>
		<clipPath id="clipPath_1">
			<rect width="20.197027" height="20.197027" x="16.410034" y="16.410156" fill="rgb(255,255,255)" />
		</clipPath>
	</defs>
	<g id="Group 705">
		<g id="chat-fill" customFrame="url(#clipPath_0)">
			<rect id="chat-fill" width="51.754883" height="51.754883" x="0.000000" y="0.000000" />
			<path id="Union" d="M25.8774 48.5201C40.1692 48.5201 51.7549 38.3826 51.7549 25.8774C51.7549 13.3721 40.1692 3.23462 25.8774 3.23462C11.5857 3.23462 0 13.3721 0 25.8774C0 31.5732 2.40357 36.7779 6.37162 40.7571C6.01749 44.456 4.75326 48.5551 3.44325 51.3257C3.35705 51.508 3.50735 51.7156 3.70681 51.6859C11.6428 50.5021 16.3074 48.5322 18.2851 47.5299C20.686 48.1737 23.2355 48.5201 25.8774 48.5201Z" fill="rgb(88,141,3)" fill-rule="nonzero" />
		</g>
		<g id="telephone-fill" customFrame="url(#clipPath_1)">
			<rect id="telephone-fill" width="20.197027" height="20.197027" x="16.410034" y="16.410156" fill="rgb(255,255,255)" fill-opacity="0" />
			<path id="telephone-fill" d="M18.7892 17.0553C19.726 16.1185 21.2718 16.2148 22.0852 17.2605L24.3494 20.1716C24.7649 20.7059 24.9117 21.4015 24.7476 22.058L24.0568 24.8213C23.9838 25.1131 24.0693 25.4217 24.282 25.6343L27.3829 28.7353C27.5956 28.9479 27.9042 29.0334 28.1959 28.9604L30.9592 28.2696C31.6158 28.1055 32.3114 28.2523 32.8456 28.6678L35.7567 30.932C36.8025 31.7454 36.8987 33.2912 35.9619 34.228L34.6568 35.5331C33.723 36.4669 32.3264 36.8769 31.0248 36.4193C27.793 35.2831 24.7595 33.4229 22.1769 30.8403C19.5943 28.2578 17.7341 25.2242 16.5979 21.9924C16.1403 20.6908 16.5503 19.2942 17.4841 18.3604L18.7892 17.0553Z" fill="rgb(255,255,255)" fill-rule="evenodd" />
		</g>
	</g>
</svg>
